<svg aria-hidden="true" style="position:absolute;width:0;height:0;overflow:hidden" xmlns="http://www.w3.org/2000/svg"><defs><symbol id="arrow-right-red" viewBox="0 0 32 16" fill="none" xmlns="http://www.w3.org/2000/svg"><path d="M0 8h30m-6.5-7 7 7-7 7" stroke="#DB574D"/></symbol><symbol id="arrow-right" viewBox="0 0 32 16" fill="none" xmlns="http://www.w3.org/2000/svg"><path d="M.59 8h30m-6.5-7 7 7-7 7" stroke="#101010"/></symbol><symbol id="icon-menu-toggle" viewBox="0 0 75 32"><path d="M8 .667h66.667V2H8V.667zm20 14.666h46.667v1.333H28v-1.333zM14.667 30h60v1.333h-60V30z"/></symbol><symbol id="arrow-down" viewBox="0 0 21 164" fill="none" xmlns="http://www.w3.org/2000/svg"><g clip-path="url(#clip0_7_164)"><path d="m20.834 154-1.393-1.43-7.607 7.58V0h-2v160.15l-7.573-7.58L.834 154l10 10 10-10Z" fill="#DB574D"/></g><defs><clipPath id="clip0_7_164"><path fill="#fff" transform="rotate(90 10.417 10.417)" d="M0 0h164v20H0z"/></clipPath></defs></symbol><symbol id="arrow-up" viewBox="0 0 21 22" fill="none" xmlns="http://www.w3.org/2000/svg"><path d="M5.02 16.48 15.627 5.873M6.08 5.52h9.9v9.9" stroke="#DB574D"/></symbol><symbol id="brackets" viewBox="0 0 51 52" fill="none" xmlns="http://www.w3.org/2000/svg"><path d="M15.277.5C5.617.5 0 5.443 0 15.328V51.5h19.77V20.496h-8.76v-5.392c0-4.044 1.572-4.718 4.493-4.718h4.494V.5h-4.718Zm31.005 0c-9.66 0-15.278 4.943-15.278 14.828V51.5h19.771V20.496h-8.762v-5.392c0-4.044 1.348-4.718 4.494-4.718H51V.5h-4.718Z" fill="#DB574D"/></symbol><symbol id="menu-button" viewBox="0 0 168 160" fill="none" xmlns="http://www.w3.org/2000/svg"><circle cx="100" cy="60" r="99.5" stroke="#DB574D"/><path transform="rotate(-45 82 77)" fill="#000" d="M82 77h50v1H82z"/><path transform="rotate(45 83 42)" fill="#000" d="M83 42h50v1H83z"/></symbol></defs></svg>